<svg id="logo" xmlns="http://www.w3.org/2000/svg" viewBox="0 0 230.53 199.38"><defs><style>.cls-1{fill:#fff;}.cls-2{fill:#0a2e51;}</style></defs><title>logo-mini</title><path class="cls-1" d="M94.5,121.06Q70.83,162,47.19,203H277.72l-47.31-81.94H94.5Z" transform="translate(-47.19 -3.62)"/><g id="mint"><path class="cls-2" d="M115.77,172.08c3.48-9.94,7.67-19,10.49-28.59a1.3,1.3,0,0,1,1.35-1.25h9.6c0.86,0,1.39.14,1.41,1.22a1.14,1.14,0,0,1-1.36,1.32c-2.71-.14-2.94,1.41-2.91,3.62,0.1,8.91.08,17.83,0,26.74,0,1.76.44,2.62,2.32,2.66,0.84,0,2.07-.17,2,1.5s-1.35,1.14-2.19,1.16c-3.25.06-6.5,0-9.75,0-0.82,0-1.64.18-1.68-1.16a1.22,1.22,0,0,1,1.46-1.46c2.37,0.13,2.76-1.07,2.73-3.18-0.11-9,0-18,0-27-1.28-.09-1.15,1-1.36,1.53q-5.61,14.59-11.11,29.23c-0.37,1-.45,2-2,2.07s-1.65-1.22-2-2.13c-3.69-9.83-7.33-19.69-11-29.53-0.16-.42,0-1-0.77-1.2-0.68.45-.31,1.18-0.32,1.75v25c0,2,.45,3.21,2.7,3.26,1,0,2,.15,1.87,1.68s-1.19,1.1-2,1.11H94.7c-0.67,0-1.51.31-1.61-.94s0.35-1.81,1.45-1.79c2.77,0,3.14-1.57,3.11-3.9-0.1-8.66-.08-17.33,0-26,0-1.89-.31-3-2.52-3-0.85,0-2.11.18-2-1.46s1.38-1.08,2.2-1.11c2.16-.09,4.34.11,6.49-0.07s3.14,0.37,3.9,2.65c2.53,7.53,5.46,14.91,8.25,22.35C114.42,168.7,115,170.14,115.77,172.08Z" transform="translate(-47.19 -3.62)"/><path class="cls-2" d="M190.11,171.69V147.23c0-1.67-.89-2.11-2.34-2.22-1-.07-2.33,0-2.11-1.71s1.52-1,2.35-1c2.66-.09,5.33,0,8,0,0.68,0,1.54-.3,1.65.93a1.37,1.37,0,0,1-1.53,1.74c-2.49-.11-2.78,1.29-2.77,3.34,0.07,9.92,0,19.83,0,29.75,0,0.85.64,2.25-.89,2.41-1.32.14-2.73,0.47-3.76-1.11-4.36-6.67-8.83-13.27-13.27-19.89a117.86,117.86,0,0,0-7.4-10.15v25.35c0,1.87.37,3,2.56,3.07,0.85,0,2.06,0,2,1.56s-1.29,1.2-2.16,1.21c-2.83,0-5.67,0-8.5,0-0.77,0-1.5.08-1.61-1s0.31-1.7,1.31-1.67c3.15,0.09,3.26-1.83,3.23-4.26q-0.15-12.75,0-25.5c0-2-.37-3.2-2.68-3.18-0.82,0-2.12.24-2.07-1.41s1.34-1.15,2.17-1.17c2.58-.07,5.57-0.82,7.63.22s2.84,3.88,4.21,5.93l15.55,23.39Z" transform="translate(-47.19 -3.62)"/><path class="cls-2" d="M218.6,161.15c0,4.58.11,9.16,0,13.74-0.07,2.06.64,2.93,2.64,2.9,0.41,0,.82.19,1.23,0.19,1.11,0,1.1.69,1.09,1.5s-0.61,1-1.33,1H210c-0.88,0-1.38-.18-1.4-1.23s0.32-1.41,1.25-1.36c3.22,0.17,3.6-1.61,3.55-4.38-0.17-8.82-.11-17.65,0-26.48,0-1.66-.46-2.19-2.08-2a18.59,18.59,0,0,1-4.24,0c-2.46-.34-3.29.88-3.4,3.06a11,11,0,0,1-.34,2.21c-0.35,1.34-1.48.69-2.29,0.8-1,.13-0.89-0.66-0.94-1.32-0.6-7.51-.61-7.5,6.83-7.5h23c1.68,0,2.44.34,2.26,2.18a46.84,46.84,0,0,0,0,4.74c0,0.9.44,2-1.31,2-1.37,0-2.3-.19-2.21-1.83a11.56,11.56,0,0,0-.1-1.24c-0.13-2.29-1.07-3.44-3.61-3.07-2,.28-4.55-0.57-5.78.42s-0.36,3.74-.41,5.71C218.6,154.49,218.6,157.82,218.6,161.15Z" transform="translate(-47.19 -3.62)"/><path class="cls-2" d="M147.05,161.38c0-4.5-.09-9,0-13.49,0.06-2-.54-2.93-2.6-3-1,0-2.37.13-2.18-1.61s1.5-1,2.34-1c3.5-.07,7,0,10.49,0,0.83,0,1.69-.14,1.75,1.15s-0.78,1.43-1.6,1.39c-2.9-.13-3.26,1.44-3.22,3.92,0.14,8.74.11,17.48,0,26.23,0,1.92.54,2.81,2.46,2.81,0.49,0,1,.2,1.47.24,1,0.07.85,0.82,0.84,1.46a0.93,0.93,0,0,1-1.08,1H143.48a1.06,1.06,0,0,1-1.26-1.14c-0.08-.94.25-1.46,1.21-1.42,3.36,0.13,3.74-1.83,3.6-4.61C146.9,169.38,147.05,165.37,147.05,161.38Z" transform="translate(-47.19 -3.62)"/></g><g id="top"><polygon id="white-bg" class="cls-1" points="163.38 83.94 66.44 83.53 69.7 77.92 113.15 77.38 113.15 77.38 160.89 79.64 163.38 83.94"/><path id="top-bg" class="cls-2" d="M162.06,3.62l46.33,80.25H193.61c-0.62,0-1.43-.2-1.45.85s0.84,0.84,1.43.84c4.5,0,9,.1,13.49,0a3.38,3.38,0,0,1,3.48,2c6,10.58,12.16,21.11,18.25,31.67,0.28,0.48.52,1,.8,1.51a3.78,3.78,0,0,1-2.26.32H96.89c-2.74,0-2.76,0-1.37-2.44,6-10.49,12.12-21,18.11-31.47a2.87,2.87,0,0,1,3-1.61c4.16,0.08,8.33.06,12.5,0,0.71,0,1.94.54,2-.76,0.06-1.59-1.34-.88-2.07-0.89-3.58-.08-7.16,0-10.75,0-2.67,0-2.68,0-1.36-2.31L141.7,38.71,160.87,5.55A19.58,19.58,0,0,1,162.06,3.62Z" transform="translate(-47.19 -3.62)"/><g id="the"><path class="cls-1" d="M172.36,93.48a18,18,0,0,1-7.34.41c0.61-1.34,2.48-.47,2.49-2,0-2.24,0-4.49-.06-6.73,0-.62-0.72-0.55-1.2-0.56h-2.5c-6.36,0-6.24,0-6.28,6.32,0,1.78,1.09,2,2.88,2.79a18.94,18.94,0,0,1-7.51,0c2.52-.8,2.25-2.69,2.21-4.56-0.06-3.49,0-7,0-10.48,0-1.19.39-2.6-1.51-2.83A1,1,0,0,1,153,75.1c0-.39.37-0.47,0.72-0.47H159a0.74,0.74,0,0,1,.54.36,0.53,0.53,0,0,1-.22.72l-0.15.05c-2.42.27-1.55,2.12-1.57,3.4-0.08,4.18,0,4.18,4.11,4.18h1c4.91,0,4.9,0,4.85-5,0-1.2.14-2.41-1.61-2.48a0.67,0.67,0,0,1-.73-0.79c0.11-.6.62-0.42,1-0.43h5c0.41,0,.91,0,0.86.58a0.92,0.92,0,0,1-.59.66c-1.72.06-1.38,1.3-1.38,2.33v12C170.07,91.64,169.6,93.44,172.36,93.48Z" transform="translate(-47.19 -3.62)"/><path class="cls-1" d="M173.89,93.38c2.53-.29,2.57-1.9,2.53-3.73-0.09-3.74,0-7.48,0-11.23,0-1.13.3-2.44-1.51-2.54a0.66,0.66,0,0,1-.66-0.85c0.13-.59.65-0.39,1-0.39h11.48c0.65,0,1.44-.15,1.35.91s0.48,2.32-.36,3.06-1.5-.08-1.5-1c0-1.63-1-1.58-2.18-1.61-5.32-.11-5.34-0.13-5.18,5.38,0,0.79-.48,2.18,1,2s3.42,1.16,4.28-1.12c0.2-.54.13-1.32,0.89-1.23,1,0.12.54,1,.6,1.62a9.25,9.25,0,0,1,0,2c-0.09.77,0.47,2-.42,2.23-1.29.36-.72-1.14-1.16-1.67-1.15-1.41-2.78-.52-4.19-0.65s-0.91,1.06-1,1.79a3.54,3.54,0,0,0,0,.5c-0.06,6-.06,6,5.93,6,1.58,0,2.54-.31,2.65-2.06,0-.58.11-1.47,1.12-1.26,0.86,0.17.5,0.92,0.53,1.43,0.19,3.08.18,3.08-3,3.08H174.25Z" transform="translate(-47.19 -3.62)"/><path class="cls-1" d="M146.72,93.62a18,18,0,0,1-7.46.12c3.74-.91,2.54-3.7,2.6-5.92,0.09-3.25,0-6.49,0-9.74,0-.9.4-2.31-1.29-2-1.34.26-3.32-1.21-3.92,1.33-0.15.62,0.28,1.77-1,1.61s-0.54-1.18-.67-1.83c-0.38-2,.31-2.73,2.48-2.62,4,0.2,8,0,12,.07,0.58,0,1.52-.36,1.58.66,0.07,1.22.52,2.62-.29,3.62-0.46.56-1,0-1.23-.85-0.35-1.7-3-2.77-4.54-2a1.11,1.11,0,0,0-.48,1.27c0,4.66.1,9.33-.06,14C144.45,93.15,145.89,92.82,146.72,93.62Z" transform="translate(-47.19 -3.62)"/></g></g></svg>