<svg id="logo" xmlns="http://www.w3.org/2000/svg" viewBox="0 0 326.1 283.14"><defs><style>.cls-1{fill:#0a2e51;}.cls-2{fill:#fefefe;}.cls-3{fill:#fdfdfe;}.cls-4{fill:#fdfdfd;}.cls-5{fill:#fdfefe;}.cls-6{fill:#0b2f51;}.cls-7{fill:#0b2f52;}.cls-8{fill:#0c3052;}.cls-9{fill:#0b2e51;}.cls-10{fill:#0c2f52;}.cls-11{fill:#0d3153;}</style></defs><title>logo</title><g id="middle"><path id="whole-bg" class="cls-1" d="M470.5,537.5c-0.73.84-1.71,0.48-2.58,0.48q-160.37,0-320.74,0c-0.94,0-2,.42-2.78-0.59,6.42-11.22,12.81-22.46,19.28-33.66q38.17-66.15,76.38-132.28l66.44-115.06c0.24-.42.51-0.82,0.91-1.45,3,5.22,6,10.29,8.93,15.37q65,112.58,130,225.16Q458.45,516.46,470.5,537.5Z" transform="translate(-144.4 -254.92)"/><g id="mint"><path class="cls-2" d="M260.17,427c3.48-9.94,7.67-19,10.49-28.59a1.3,1.3,0,0,1,1.45-1.24c3.17,0,6.33,0,9.5,0,0.86,0,1.39.14,1.41,1.22a1.14,1.14,0,0,1-1.36,1.32c-2.71-.14-2.94,1.41-2.91,3.62,0.1,8.91.08,17.83,0,26.74,0,1.76.44,2.62,2.32,2.66,0.84,0,2.07-.17,1.95,1.5s-1.35,1.14-2.19,1.16c-3.25.06-6.5,0-9.75,0-0.82,0-1.64.18-1.68-1.16a1.22,1.22,0,0,1,1.46-1.46c2.37,0.13,2.76-1.07,2.73-3.18-0.11-9,0-18,0-27-1.28-.09-1.15,1-1.36,1.53q-5.61,14.59-11.11,29.23c-0.37,1-.45,2.05-2,2.07s-1.65-1.22-2-2.13c-3.69-9.83-7.33-19.69-11-29.53-0.16-.42,0-1-0.77-1.2-0.68.45-.31,1.18-0.32,1.75,0,8.33,0,16.66,0,25,0,2,.45,3.21,2.7,3.26,1,0,2,.15,1.87,1.68s-1.19,1.1-2,1.11c-2.83,0-5.67,0-8.5,0-0.67,0-1.51.31-1.61-.94s0.35-1.81,1.45-1.79c2.77,0,3.14-1.57,3.11-3.9-0.1-8.66-.08-17.33,0-26,0-1.89-.31-3-2.52-3-0.85,0-2.11.18-2-1.46s1.38-1.08,2.2-1.11c2.16-.09,4.34.11,6.49-0.07s3.14,0.37,3.9,2.65c2.53,7.53,5.46,14.91,8.25,22.35C258.82,423.62,259.4,425.06,260.17,427Z" transform="translate(-144.4 -254.92)"/><path class="cls-3" d="M334.51,426.61c0-8.15,0-16.3,0-24.46,0-1.67-.89-2.11-2.34-2.22-1-.07-2.33,0-2.11-1.71s1.52-1,2.35-1c2.66-.09,5.33,0,8,0,0.68,0,1.54-.3,1.65.93a1.37,1.37,0,0,1-1.53,1.74c-2.49-.11-2.78,1.29-2.77,3.34,0.07,9.92,0,19.83,0,29.75,0,0.85.64,2.25-.89,2.41-1.32.14-2.73,0.47-3.76-1.11-4.36-6.67-8.83-13.27-13.27-19.89a117.86,117.86,0,0,0-7.4-10.15v2.1c0,7.75,0,15.5,0,23.25,0,1.87.37,3.05,2.56,3.07,0.85,0,2.06,0,2,1.56s-1.29,1.2-2.16,1.21c-2.83.05-5.67,0-8.5,0-0.77,0-1.5.08-1.61-1s0.31-1.7,1.31-1.67c3.15,0.09,3.26-1.83,3.23-4.26q-0.15-12.75,0-25.5c0-2-.37-3.2-2.68-3.18-0.82,0-2.12.24-2.07-1.41s1.34-1.15,2.17-1.17c2.58-.07,5.57-0.82,7.63.22,1.91,1,2.84,3.88,4.21,5.93l15.55,23.39Z" transform="translate(-144.4 -254.92)"/><path class="cls-4" d="M363,416.07c0,4.58.11,9.16,0,13.74-0.07,2.06.64,2.93,2.64,2.9,0.41,0,.82.19,1.23,0.19,1.11,0,1.1.69,1.09,1.5s-0.61,1-1.33,1c-4.08,0-8.16,0-12.24,0-0.88,0-1.38-.18-1.4-1.23s0.32-1.41,1.25-1.36c3.22,0.17,3.6-1.61,3.55-4.38-0.17-8.82-.11-17.65,0-26.48,0-1.66-.46-2.19-2.08-2a18.59,18.59,0,0,1-4.24,0c-2.46-.34-3.29.88-3.4,3.06a11,11,0,0,1-.34,2.21c-0.35,1.34-1.48.69-2.29,0.8-1,.13-0.89-0.66-0.94-1.32-0.6-7.51-.61-7.5,6.83-7.5,7.66,0,15.32,0,23,0,1.68,0,2.44.34,2.26,2.18-0.16,1.57,0,3.16,0,4.74,0,0.9.44,2-1.31,2-1.37,0-2.3-.19-2.21-1.83a11.55,11.55,0,0,0-.1-1.24c-0.13-2.29-1.07-3.44-3.61-3.07-2,.28-4.55-0.57-5.78.42s-0.36,3.74-.41,5.71C363,409.41,363,412.74,363,416.07Z" transform="translate(-144.4 -254.92)"/><path class="cls-5" d="M291.45,416.3c0-4.5-.09-9,0-13.49,0.06-2-.54-2.93-2.6-3-1,0-2.37.13-2.18-1.61s1.5-1,2.34-1c3.5-.07,7,0,10.49,0,0.83,0,1.69-.14,1.75,1.15s-0.78,1.43-1.6,1.39c-2.9-.13-3.26,1.44-3.22,3.92,0.14,8.74.11,17.48,0,26.23,0,1.92.54,2.81,2.46,2.81,0.49,0,1,.2,1.47.24,1,0.07.85,0.82,0.84,1.46a0.93,0.93,0,0,1-1.08,1c-4.08,0-8.16,0-12.24,0a1.06,1.06,0,0,1-1.26-1.14c-0.08-.94.25-1.46,1.21-1.42,3.36,0.13,3.74-1.83,3.6-4.61C291.3,424.3,291.45,420.29,291.45,416.3Z" transform="translate(-144.4 -254.92)"/></g></g><g id="bottom"><path id="bottom-bg" class="cls-2" d="M466.74,536.39H146c1.08-2,2-3.78,3.06-5.55Q169.52,495.4,190,459.95a3.48,3.48,0,0,1,3.52-2q112.87,0.06,225.73,0a3.47,3.47,0,0,1,3.55,1.92q21.18,36.9,42.5,73.71C465.75,534.44,466.18,535.31,466.74,536.39Z" transform="translate(-144.4 -254.92)"/><g id="artisan"><path class="cls-1" d="M223.89,505.34a25.33,25.33,0,0,1-7.65-.24c2.57-.62,2.29-2.46,2.27-4.25,0-3.91-.1-7.83,0-11.74,0.05-1.75-.09-3.13-2.16-3.29,0.13-1.12.88-.79,1.37-0.8,2.42,0,4.83,0,7.25,0,3.58,0.06,5.77,1.46,6.4,4,0.66,2.72-.46,4.6-4.19,6.59,2.71,1.21,3.27,3.61,3.74,6s2.42,2.86,4.62,3c-2,1.77-5.24,1.32-6.38-.8a20,20,0,0,1-1.16-3.26,7.36,7.36,0,0,0-1.53-3.09,4.5,4.5,0,0,0-4.4-1.07c-1.68.38-.6,1.94-0.86,2.94a5,5,0,0,0,0,1.25C221.21,503.66,221.21,503.66,223.89,505.34Z" transform="translate(-144.4 -254.92)"/><path class="cls-1" d="M321,505.34a29.46,29.46,0,0,1-8.19-.25c3.47-.61,2.61-3.1,2.63-5.16q0.05-4.87,0-9.75c0-1.93.84-4.36-2.68-4.75,4.52-.26,8.75-1.18,12.88.38,1.86,0.7,2.55,2.38,2.72,4.16a4.59,4.59,0,0,1-2.2,4.46,22.55,22.55,0,0,1-2.36,1.13c2.66,1.16,3.46,3.28,3.84,5.66s2.13,3.35,4.6,3.4c-2,1.76-5.06,1.34-6.15-.74a34,34,0,0,1-1.57-4.17c-1-2.65-2.42-3.68-5-3.47-0.86.07-1.61,0.28-1.49,1.48a28.42,28.42,0,0,1,0,3C318.06,503.72,318.06,503.72,321,505.34Z" transform="translate(-144.4 -254.92)"/><path class="cls-6" d="M305.12,504.83c3-.42,2.27-2,1.55-3.5-0.55-1.17-.48-3.12-1.69-3.39a25.35,25.35,0,0,0-6.44-.13c-0.71,0-2.8,5.24-2.55,6,0.35,1,1.61.27,2.16,1.37-1.86.71-3.73,0.24-5.53,0.32a0.67,0.67,0,0,1-.48-0.42,0.55,0.55,0,0,1,.52-0.69c1.62-.18,1.74-1.57,2.16-2.67q2.86-7.53,5.66-15.09c0.31-.84.4-1.76,1.67-1.81s1.38,1,1.68,1.78q3.08,7.85,6.06,15.74c0.29,0.76.33,1.62,1.39,1.85,0.48,0.11,1.33.18,1.05,1-0.19.58-.86,0.32-1.31,0.33-1.79,0-3.58,0-5.38,0Z" transform="translate(-144.4 -254.92)"/><path class="cls-6" d="M201.08,505.51c-1.11,0-2.22.06-3.33,0-0.77-.06-1.91.5-2.24-0.39s1.08-.73,1.44-1.29a10.36,10.36,0,0,0,.94-2q2.83-7.53,5.63-15.07c0.33-.89.38-2,1.8-2s1.32,1.06,1.63,1.85c2,5.15,4,10.32,6,15.48a5.78,5.78,0,0,0,.84,1.76c0.43,0.49,1.85.26,1.56,1.16s-1.59.39-2.42,0.45c-1.42.11-2.86,0-4.7,0,0.83-1.37,3.34-1.06,2-3.07-1.19-1.83-.5-5.4-4.4-4.73a3,3,0,0,1-.5,0c-4.27,0-5.54,1.1-6.2,5.35C199,504,199,504,201.08,505.51Z" transform="translate(-144.4 -254.92)"/><path class="cls-6" d="M396.49,505c-2.15,1.12-4.35.34-7.26,0.48,1.44-1.14,3.27-1.4,2.1-3.23s-0.67-5-4.56-4.61c-4.73.42-5.4,0.7-6.46,5.37-0.5,2.19,1.77.88,2.28,2.5-1.93,0-3.72,0-5.51,0a0.73,0.73,0,0,1-.51-0.41,0.53,0.53,0,0,1,.45-0.73c1.48-.23,1.61-1.5,2-2.55,1.92-5.1,3.82-10.21,5.74-15.31,0.27-.72.3-1.66,1.49-1.69s1.45,0.8,1.78,1.68c1.94,5.1,4,10.15,5.84,15.28a4.43,4.43,0,0,0,2.61,2.93V505Z" transform="translate(-144.4 -254.92)"/><path class="cls-7" d="M396.49,505q0-.15,0-0.29c2.65,0,3.53-1.29,3.35-3.92-0.23-3.48-.06-7-0.06-10.5,0-3.35,0-3.35-2.39-4.77,3.15-1.17,4.94-.66,6.63,1.87,3,4.52,6,9,9.51,13.43,0-4.37-.06-8.73,0-13.1,0-1.84-2-1.09-2.64-2.43a16.23,16.23,0,0,1,6.73.15c-3.45.87-2.57,3.44-2.58,5.6,0,4.17,0,8.33,0,12.5,0,0.66.47,1.59-.55,1.93s-1.68-.33-2.22-1.15q-4.56-6.84-9.15-13.66a5.64,5.64,0,0,0-1.9-2v11.28c0,3.46,0,3.46,2.9,5.44C401.22,505.47,398.85,505.9,396.49,505Z" transform="translate(-144.4 -254.92)"/><path class="cls-8" d="M361.44,502.28c0-.56,0-1,0-1.39s-0.24-1.24.67-1.33,0.82,0.5,1,1.1c0.84,3.55,3.3,4.76,6.66,3.33a3.29,3.29,0,0,0,1.09-5.63c-1.46-1.45-3.41-2-5.19-2.88-3.16-1.55-4.37-3.21-4-5.61,0.39-2.72,2.2-4.46,5.34-5.17,2-.45,4,0,5.92.42a1.2,1.2,0,0,1,1.13,1.38c-0.1,1.15.52,2.62-.31,3.36s-1.47-.35-1.49-1.18c-0.05-1.82-1.16-2.45-2.69-2.62-1.83-.21-3.51.11-4.58,1.82a3.21,3.21,0,0,0,1.27,4.68c1.64,0.95,3.4,1.68,5.13,2.47,2.26,1,3.53,2.67,3.36,5.26s-1.83,4.21-4.14,5.08a13.08,13.08,0,0,1-7.86.08C360.68,504.95,361.73,503.29,361.44,502.28Z" transform="translate(-144.4 -254.92)"/><path class="cls-9" d="M343.93,505.26H336.4c3.11-.66,2.38-3,2.38-5q0-6,0-12c0-.92.35-2.32-1.28-2.05-1.39.23-3.42-1.24-4.09,1.36-0.18.7,0.09,1.89-1.14,1.88s-0.85-1.12-.74-1.7c0.17-1-.92-2.7,1-2.76,5.15-.15,10.31,0,15.46-0.06,1,0,1.1.63,1,1.32-0.21,1.06.71,2.44-.54,3.15-0.8.45-1.34-.18-1.36-1.15-0.08-3.4-2.7-1.89-4.28-2-2.06-.18-1.18,1.61-1.21,2.54-0.09,4.07,0,8.15,0,12.22C341.51,503.88,341.51,503.88,343.93,505.26Z" transform="translate(-144.4 -254.92)"/><path class="cls-1" d="M239.44,505.22c2.47-.56,2.6-2.18,2.54-4.22-0.13-4.24,0-8.49,0-12.73,0-1,.29-2.27-1.32-2-1.43.22-3.5-1.14-4.12,1.4-0.21.85,0.07,2.11-1.34,1.84-1.2-.23-0.46-1.37-0.6-2.09-0.39-1.94.41-2.52,2.38-2.45,4.4,0.16,8.82,0,13.23.07,0.65,0,1.7-.44,1.78.72s0.51,2.65-.26,3.63c-0.51.65-1.31,0-1.55-.87s0.19-1.94-.86-2.13a16.78,16.78,0,0,0-4-.08c-1,.06-0.75.94-0.75,1.56,0,4.83.12,9.66-.07,14.48-0.08,2.14,1.64,1.86,3.33,2.9h-8.39Z" transform="translate(-144.4 -254.92)"/><path class="cls-1" d="M350.64,485.26h7.48c-2.69.76-2.48,2.75-2.43,4.76q0.12,5.23,0,10.46c0,2-.29,4,2.43,4.76h-7.48c3.19-.73,2.33-3.22,2.35-5.26,0-3.49-.05-7,0-10.46C353.06,487.61,353.2,485.8,350.64,485.26Z" transform="translate(-144.4 -254.92)"/><path class="cls-10" d="M281.66,496.46c-0.1.84-.75,0.74-1.31,0.74-1.75,0-3.49.05-5.24,0-1.19,0-1.63.42-1.56,1.61a46.57,46.57,0,0,1,0,4.74c0,0.7.52,2-.84,1.88s-0.68-1.29-.73-2a37,37,0,0,1,0-4.49c0.08-1.29-.36-1.81-1.68-1.75-1.74.08-3.49,0-5.24,0-0.61,0-1.21,0-1.21-.87s0.68-.79,1.25-0.79c1.75,0,3.5-.09,5.24,0,1.36,0.08,1.73-.44,1.65-1.72a35.35,35.35,0,0,1,0-4.49c0-.7-0.57-2,0.72-2,1.51,0,.77,1.35.84,2.1a22.24,22.24,0,0,1,0,4c-0.14,1.57.3,2.26,2,2.11s3.32,0,5,0C281.16,495.55,281.73,495.6,281.66,496.46Z" transform="translate(-144.4 -254.92)"/></g></g><g id="top"><path id="top-bg" class="cls-2" d="M306.46,258.54l46.33,80.25H340.51c-0.83,0-1.67,0-2.5,0-0.62,0-1.43-.2-1.45.85s0.84,0.84,1.43.84c4.5,0,9,.1,13.49,0a3.38,3.38,0,0,1,3.48,2c6,10.58,12.16,21.11,18.25,31.67,0.28,0.48.52,1,.8,1.51a3.27,3.27,0,0,1-2.26.32q-65.23,0-130.46,0c-2.74,0-2.76,0-1.37-2.44,6-10.49,12.12-21,18.11-31.47a2.87,2.87,0,0,1,3-1.61c4.16,0.08,8.33.06,12.5,0,0.71,0,1.94.54,2-.76,0.06-1.59-1.34-.88-2.07-0.89-3.58-.08-7.16,0-10.75,0-2.67,0-2.68,0-1.36-2.31l24.75-42.87,19.17-33.16C305.54,259.91,305.91,259.39,306.46,258.54Z" transform="translate(-144.4 -254.92)"/><g id="the"><path class="cls-7" d="M316.76,348.4a18,18,0,0,1-7.34.41c0.61-1.34,2.48-.47,2.49-2,0-2.24,0-4.49-.06-6.73,0-.62-0.72-0.55-1.2-0.56-0.83,0-1.66,0-2.5,0-6.36,0-6.24,0-6.28,6.32,0,1.78,1.09,2,2.88,2.79a18.94,18.94,0,0,1-7.51,0c2.52-.8,2.25-2.69,2.21-4.56-0.06-3.49,0-7,0-10.48,0-1.19.39-2.6-1.51-2.83a1,1,0,0,1-.49-0.74c0-.39.37-0.47,0.72-0.47,1.75,0,3.49,0,5.24,0a0.74,0.74,0,0,1,.54.36,0.53,0.53,0,0,1-.37.77c-2.42.27-1.55,2.12-1.57,3.4-0.08,4.18,0,4.18,4.11,4.18h1c4.91,0,4.9,0,4.85-5,0-1.2.14-2.41-1.61-2.48a0.67,0.67,0,0,1-.73-0.79c0.11-.6.62-0.42,1-0.43,1.66,0,3.33,0,5,0,0.41,0,.91,0,0.86.58a0.92,0.92,0,0,1-.59.66c-1.72.06-1.38,1.3-1.38,2.33q0,6,0,12C314.47,346.56,314,348.36,316.76,348.4Z" transform="translate(-144.4 -254.92)"/><path class="cls-10" d="M318.29,348.3c2.53-.29,2.57-1.9,2.53-3.73-0.09-3.74,0-7.48,0-11.23,0-1.13.3-2.44-1.51-2.54a0.66,0.66,0,0,1-.66-0.85c0.13-.59.65-0.39,1-0.39,3.83,0,7.65,0,11.48,0,0.65,0,1.44-.15,1.35.91s0.48,2.32-.36,3.06-1.5-.08-1.5-1c0-1.63-1-1.58-2.18-1.61-5.32-.11-5.34-0.13-5.18,5.38,0,0.79-.48,2.18,1,2s3.42,1.16,4.28-1.12c0.2-.54.13-1.32,0.89-1.23,1,0.12.54,1,.6,1.62a9.25,9.25,0,0,1,0,2c-0.09.77,0.47,2-.42,2.23-1.29.36-.72-1.14-1.16-1.67-1.15-1.41-2.78-.52-4.19-0.65s-0.91,1.06-1,1.79a3.54,3.54,0,0,0,0,.5c-0.06,6-.06,6,5.93,6,1.58,0,2.54-.31,2.65-2.06,0-.58.11-1.47,1.12-1.26,0.86,0.17.5,0.92,0.53,1.43,0.19,3.08.18,3.08-2.95,3.08H318.65Z" transform="translate(-144.4 -254.92)"/><path class="cls-11" d="M291.12,348.54a18,18,0,0,1-7.46.12c3.74-.91,2.54-3.7,2.6-5.92,0.09-3.25,0-6.49,0-9.74,0-.9.4-2.31-1.29-2-1.34.26-3.32-1.21-3.92,1.33-0.15.62,0.28,1.77-1,1.61s-0.54-1.18-.67-1.83c-0.38-2,.31-2.73,2.48-2.62,4,0.2,8,0,12,.07,0.58,0,1.52-.36,1.58.66,0.07,1.22.52,2.62-.29,3.62-0.46.56-1.05,0-1.23-.85-0.35-1.7-3-2.77-4.54-2a1.11,1.11,0,0,0-.48,1.27c0,4.66.1,9.33-.06,14C288.85,348.07,290.29,347.74,291.12,348.54Z" transform="translate(-144.4 -254.92)"/></g></g></svg>